<?xml version="1.0" encoding="UTF-8"?>
<svg id="Layer_2" data-name="Layer 2" xmlns="http://www.w3.org/2000/svg" viewBox="0 0 2120 517.5">
  <defs>
    <style>
      .cls-1 {
        fill: #09f;
      }

      .cls-2 {
        fill: #91e200;
      }
    </style>
  </defs>
  <g id="Layer_1-2" data-name="Layer 1">
    <path class="cls-1" d="M2120,507.2v-224.36c0-95.75-38.87-140.34-122.32-140.34-43.16,0-78.15,19.37-101.73,56.16-17.5-37.27-53.25-56.16-106.41-56.16-39.3,0-72.81,16.88-95.65,47.86-1.61-9.36-4.71-24.17-7.38-32.27-.98-2.96-1.97-4.93-2.72-6.18-14.38-2.89-29.25-4.41-44.48-4.41s-29.88,1.5-44.16,4.34v355.36c17.46,3.48,35.51,5.3,53.98,5.3s36.52-1.83,53.98-5.3v-185.22c0-59.71,17.67-85.19,59.1-85.19,31.18,0,41.39,17.89,41.39,70.9v199.51c17.46,3.47,35.5,5.3,53.98,5.3s36.53-1.82,53.98-5.3v-185.22c0-59.71,17.67-85.19,59.09-85.19,31.18,0,41.39,17.89,41.39,70.9v199.5c17.45,3.47,35.5,5.3,53.98,5.3s36.52-1.82,53.98-5.3"/>
    <path class="cls-1" d="M687.86,5.5v447c0,33.14,26.86,60,59.99,60h0c17.19,0,33.92-1.93,50-5.58V5.5c-17.77-3.6-36.16-5.5-55-5.5s-37.23,1.9-55,5.5"/>
    <path class="cls-1" d="M250,507V12.5H4.54C1.56,28.71,0,45.42,0,62.5s1.56,33.79,4.54,50h135.46v394.5c17.77,3.61,36.16,5.5,55,5.5s37.23-1.9,55-5.5"/>
    <path class="cls-2" d="M395.46,12.5h-105.46v100h105.46c2.98-16.21,4.54-32.92,4.54-50s-1.56-33.79-4.54-50"/>
    <path class="cls-1" d="M536.73,286.76c-2.81-39.42-24.73-62.77-59.35-62.77-39.89,0-62.26,20.55-68.26,62.77h127.61ZM492.26,517.5c-60.49,0-107.77-16.03-140.51-47.64-33.03-31.89-49.78-78.22-49.78-137.68,0-54.83,16.22-101.82,46.91-135.89,31.69-35.18,76.55-53.78,129.74-53.78,95.65,0,159.91,68.75,159.91,171.07,0,14.23-.4,34.61-3.9,47.2l-.99,3.58h-225.32c5.06,44.54,35.99,67.11,92.01,67.11,29.15,0,60.97-5.7,92.03-16.47l3.95-1.37,1.97,3.68c5.3,9.95,9.68,20.79,13.39,33.14,3.48,12.2,5.58,24.71,7.01,41.92l.31,3.73-3.52,1.27c-36.9,13.36-78.35,20.14-123.2,20.14"/>
    <path class="cls-1" d="M965.85,507V5.5C948.08,1.9,929.69,0,910.85,0s-37.23,1.9-55,5.5v501.49c17.77,3.61,36.16,5.5,55,5.5s37.23-1.89,55-5.5"/>
    <path class="cls-1" d="M1372.43,223.99c-33.27,0-60.34,26.59-60.34,59.28v92.85c0,33.03,27.07,59.9,60.34,59.9s60.96-26.31,60.96-59.9v-92.85c0-32.69-27.35-59.28-60.96-59.28M1372.43,517.5c-107.64,0-174.51-71.61-174.51-186.88,0-55.59,15.82-102.54,45.76-135.79,30.83-34.23,75.35-52.33,128.75-52.33s97.67,18.01,128.51,52.09c30.1,33.25,46.01,80.29,46.01,136.04,0,115.27-66.87,186.88-174.51,186.88"/>
    <path class="cls-1" d="M1095.38,317.32l93.22-165.68c-18.24-2.73-36.9-4.14-55.9-4.14-20.71,0-41.03,1.68-60.83,4.91l-89.58,169.32,104.4,185.77c19.98,3.29,40.5,5,61.41,5,19.1,0,37.87-1.43,56.21-4.19l-108.93-190.99Z"/>
  </g>
</svg>